<svg xmlns="http://www.w3.org/2000/svg" width="211" height="64" fill="none"><path fill="#000056" d="M80.007 24.086h16.316c4.105 0 7.281 1.37 9.308 3.778 1.641 1.917 2.629 4.49 2.629 7.446 0 7.174-4.105 11.5-12.649 11.5H84.934v16.426h-4.927v-39.15Zm4.927 18.725h10.292c5.529 0 8.158-2.79 8.158-7.28 0-4.708-2.901-7.175-7.883-7.175H84.934v14.455ZM109.684 49.108c0-8.213 5.365-14.892 13.416-14.892 8.485 0 13.031 6.568 13.031 15.931H114.23c.327 5.75 3.447 10.13 9.142 10.13 4.105 0 6.844-1.972 7.828-5.805h4.325C134.211 60.55 129.775 64 123.369 64c-8.651 0-13.688-6.679-13.688-14.892h.003Zm4.656-2.299h17.029c-.276-5.64-3.176-9.087-8.269-9.087-5.092 0-8.103 3.943-8.76 9.087ZM138.429 34.928h4.105v-8.926h4.435v8.926h5.475v3.613h-5.475v18.395c0 1.971 1.04 2.629 2.849 2.629.878 0 1.862-.22 2.354-.382h.165v3.833c-1.039.22-2.243.382-3.558.382-3.613 0-6.241-1.48-6.241-5.475V38.541h-4.105v-3.613h-.004ZM163.007 39.635h.114c1.696-2.739 4.652-5.037 8.43-5.037.822 0 1.259.11 1.806.33v4.27h-.165c-.657-.22-1.094-.275-1.971-.275-4.381 0-8.214 3.286-8.214 8.595v15.715h-4.435V34.928h4.435v4.707ZM193.342 59.293h-.055c-1.697 2.192-4.601 4.49-9.418 4.49-5.364 0-9.583-2.519-9.583-7.883 0-6.678 5.258-8.048 12.319-9.142 3.998-.602 6.789-.984 6.789-4.053 0-3.07-2.299-4.983-6.352-4.983-4.601 0-6.899 1.972-7.064 6.242h-4.271c.166-5.474 3.779-9.583 11.28-9.583 6.021 0 10.456 2.243 10.456 8.98V56.83c0 2.299.547 3.558 3.011 3.011h.165v3.231c-.547.22-1.259.437-2.408.437-2.901 0-4.436-1.314-4.873-4.215h.004Zm.11-6.514v-4.82c-1.48.929-4.053 1.641-6.462 2.081-4.435.823-7.993 1.587-7.993 5.75 0 3.778 2.956 4.6 5.86 4.6 5.915 0 8.595-4.325 8.595-7.61ZM0 0v63.243h64.42V0H0Zm63.099 1.321v58.873l-4.553-7.597-6.589-4.855-9.273-18.192h-4.246L32.65 14.892 19.72 37.399l-5.705-2.096L1.32 59.864V1.321H63.1ZM37.327 50.233 31.532 61.11l-5.02-10.66L37.33 32.58v17.656l-.003-.004ZM25.504 48.31l-4.742-10.068 10.34-18-5.598 28.068Zm-5.97-9.573 5.354 11.369L2.16 61.123l12.494-24.178 4.879 1.792Zm4.5 13.251-6.014 9.934H3.54l20.494-9.934Zm1.655-.182 4.766 10.116H19.568l6.125-10.116h-.004Zm13.705-.97L51.27 48.88l6.28 4.624 5.044 8.417h-11.7L39.395 50.835ZM206.766 20.979c.639 0 1.262.164 1.87.494a3.473 3.473 0 0 1 1.422 1.406 3.86 3.86 0 0 1 .509 1.905 3.84 3.84 0 0 1-.504 1.89 3.538 3.538 0 0 1-1.406 1.411 3.856 3.856 0 0 1-1.891.5c-.658 0-1.29-.167-1.895-.5a3.576 3.576 0 0 1-1.406-1.41 3.84 3.84 0 0 1-.504-1.891c0-.662.17-1.297.509-1.905a3.506 3.506 0 0 1 1.426-1.407 3.887 3.887 0 0 1 1.87-.494Zm0 .63c-.534 0-1.055.137-1.562.413a2.933 2.933 0 0 0-1.185 1.174 3.199 3.199 0 0 0-.428 1.588c0 .548.139 1.074.418 1.578.283.5.676.892 1.18 1.174.504.279 1.03.418 1.577.418.548 0 1.074-.14 1.578-.418a2.99 2.99 0 0 0 1.174-1.174c.279-.504.419-1.03.419-1.578a3.19 3.19 0 0 0-.429-1.588 2.888 2.888 0 0 0-1.184-1.174 3.23 3.23 0 0 0-1.558-.413Zm-1.668 5.277v-4.093h1.406c.481 0 .829.039 1.044.116a.999.999 0 0 1 .514.393c.127.188.191.388.191.6 0 .299-.107.56-.322.781-.212.222-.494.346-.847.373.144.06.26.133.348.217.164.161.366.432.605.811l.499.802h-.807l-.363-.645c-.285-.508-.516-.825-.69-.953-.121-.094-.298-.141-.53-.141h-.388v1.739h-.66Zm.66-2.304h.802c.383 0 .643-.057.781-.171a.555.555 0 0 0 .212-.454.543.543 0 0 0-.101-.322.592.592 0 0 0-.282-.217c-.118-.047-.338-.07-.661-.07h-.751v1.234Z"/></svg>